<?xml version="1.0" encoding="UTF-8"?>
<svg width="60px" height="60px" viewBox="0 0 60 60" version="1.1" xmlns="http://www.w3.org/2000/svg" xmlns:xlink="http://www.w3.org/1999/xlink">
    <title>wheelchair</title>
    <g id="Page-1" stroke="none" stroke-width="1" fill="none" fill-rule="evenodd">
        <g id="wheelchair" fill="#000" fill-rule="nonzero">
            <path d="M30,4.42857143 C44.12271,4.42857143 55.5714286,15.87729 55.5714286,30 C55.5714286,44.12271 44.12271,55.5714286 30,55.5714286 C15.87729,55.5714286 4.42857143,44.12271 4.42857143,30 C4.42857143,15.87729 15.87729,4.42857143 30,4.42857143 Z M30,6.42857143 C16.9818595,6.42857143 6.42857143,16.9818595 6.42857143,30 C6.42857143,43.0181405 16.9818595,53.5714286 30,53.5714286 C43.0181405,53.5714286 53.5714286,43.0181405 53.5714286,30 C53.5714286,16.9818595 43.0181405,6.42857143 30,6.42857143 Z M22.6575868,27.6261419 L22.658583,30.3611655 C20.6218177,31.4906958 19.2443182,33.6569764 19.2443182,36.1428571 C19.2443182,39.7939945 22.2158966,42.7556818 25.8833833,42.7556818 C28.7527502,42.7556818 31.1961394,40.9427798 32.1237124,38.4051699 L34.7269721,38.4048491 C33.7182634,42.3376144 30.1405913,45.2443182 25.8833833,45.2443182 C20.8433147,45.2443182 16.7556818,41.1702912 16.7556818,36.1428571 C16.7556818,32.2481439 19.2088656,28.9256159 22.6575868,27.6261419 Z M28.0333969,21.1428571 C28.5047002,21.1428571 28.9494534,21.2562373 29.3416941,21.4571217 C29.3983885,21.4833379 29.4540171,21.5136628 29.5077931,21.5486543 C29.6738574,21.6487388 29.8288945,21.7644228 29.9707824,21.8941642 L34.1841919,25.0793571 L38.3060186,25.0794675 C38.9502854,25.0794675 39.480191,25.5691064 39.5439125,26.1965614 L39.5503368,26.3237857 C39.5503368,27.0110037 38.9932366,27.5681039 38.3060186,27.5681039 L33.7666232,27.5681039 C33.4957878,27.5681039 33.2323473,27.4797393 33.0162919,27.316424 L30.8997121,25.716 L30.8997121,31.785 L36.8373534,32.7725019 C37.2142878,32.8351151 37.5415563,33.0674373 37.7249958,33.4026237 L42.025007,41.2597372 C42.354945,41.8625717 42.1337187,42.6187332 41.5308842,42.9486713 C41.3701284,43.0366547 41.1984692,43.0854443 41.0268969,43.0982552 L40.8983721,43.1011668 C40.4712671,43.0887117 40.061882,42.8564147 39.8419341,42.4545192 L36.1363969,35.6835714 L28.5031083,36.1046838 C28.4042925,36.1209198 28.3037738,36.1321185 28.2018265,36.1380066 L28.0333969,36.1428571 C26.4502702,36.1428571 25.1667121,34.8635714 25.1667121,33.2857143 L25.1667121,24 C25.1667121,22.4221429 26.4502702,21.1428571 28.0333969,21.1428571 Z M43.318835,24.6615953 C43.6698382,24.8376831 43.8116352,25.2649747 43.6355475,25.6159779 L41.2404323,30.3902636 C41.1198199,30.6306856 40.8738646,30.7824675 40.6048848,30.7824675 L35.5881864,30.7824675 C35.1954904,30.7824675 34.8771474,30.4641245 34.8771474,30.0714286 C34.8771474,29.6787326 35.1954904,29.3603896 35.5881864,29.3603896 L40.1661864,29.3601429 L42.3644525,24.9783078 C42.5405402,24.6273046 42.9678318,24.4855076 43.318835,24.6615953 Z M29.4667393,14 C31.049866,14 32.3334241,15.2792857 32.3334241,16.8571429 C32.3334241,18.435 31.049866,19.7142857 29.4667393,19.7142857 C27.8836126,19.7142857 26.6000545,18.435 26.6000545,16.8571429 C26.6000545,15.2792857 27.8836126,14 29.4667393,14 Z" id="Combined-Shape"></path>
        </g>
    </g>
</svg>